<?xml version="1.0" encoding="UTF-8" standalone="no"?>
<svg
   width="48px"
   height="48px"
   stroke-width="1.5"
   viewBox="0 0 24 24"
   fill="none"
   color="#ffffff"
   version="1.1"
   id="svg82"
   sodipodi:docname="movie.svg"
   inkscape:version="1.2.2 (b0a8486541, 2022-12-01)"
   inkscape:export-filename="movie.png"
   inkscape:export-xdpi="96"
   inkscape:export-ydpi="96"
   xmlns:inkscape="http://www.inkscape.org/namespaces/inkscape"
   xmlns:sodipodi="http://sodipodi.sourceforge.net/DTD/sodipodi-0.dtd"
   xmlns="http://www.w3.org/2000/svg"
   xmlns:svg="http://www.w3.org/2000/svg">
  <defs
     id="defs86" />
  <sodipodi:namedview
     id="namedview84"
     pagecolor="#ffffff"
     bordercolor="#000000"
     borderopacity="0.25"
     inkscape:showpageshadow="2"
     inkscape:pageopacity="0.0"
     inkscape:pagecheckerboard="true"
     inkscape:deskcolor="#d1d1d1"
     showgrid="false"
     inkscape:zoom="9.0729167"
     inkscape:cx="21.823192"
     inkscape:cy="26.452354"
     inkscape:window-width="1872"
     inkscape:window-height="1025"
     inkscape:window-x="0"
     inkscape:window-y="0"
     inkscape:window-maximized="1"
     inkscape:current-layer="svg82" />
  <path
     style="color:#ffffff;fill:#ffffff;stroke-linecap:round;stroke-linejoin:round;-inkscape-stroke:none"
     d="M 6.9707031,7.25 A 0.75,0.75 0 0 0 6.453125,7.4980469 l -0.00977,0.00977 a 0.75,0.75 0 0 0 0.054687,1.0605469 0.75,0.75 0 0 0 1.0585937,-0.056641 L 7.5683594,8.5 A 0.75,0.75 0 0 0 7.5117187,7.4414062 0.75,0.75 0 0 0 6.9707031,7.25 Z"
     id="path68" />
  <path
     style="color:#ffffff;fill:#ffffff;stroke-linecap:round;stroke-linejoin:round;-inkscape-stroke:none"
     d="m 17.511719,7.4414062 a 0.75,0.75 0 0 0 -1.058594,0.056641 l -0.0098,0.00977 a 0.75,0.75 0 0 0 0.05469,1.0605469 0.75,0.75 0 0 0 1.058594,-0.056641 L 17.568359,8.5 a 0.75,0.75 0 0 0 -0.05664,-1.0585938 z"
     id="path70" />
  <path
     style="color:#ffffff;fill:#ffffff;stroke-linecap:round;stroke-linejoin:round;-inkscape-stroke:none"
     d="m 7.5117187,11.441406 a 0.75,0.75 0 0 0 -1.0585937,0.05469 l -0.00977,0.01172 a 0.75,0.75 0 0 0 0.054687,1.058593 0.75,0.75 0 0 0 1.0585937,-0.05469 L 7.5664062,12.5 a 0.75,0.75 0 0 0 -0.054687,-1.058594 z"
     id="path72" />
  <path
     style="color:#ffffff;fill:#ffffff;stroke-linecap:round;stroke-linejoin:round;-inkscape-stroke:none"
     d="m 16.970703,11.25 a 0.75,0.75 0 0 0 -0.517578,0.246094 l -0.0098,0.01172 a 0.75,0.75 0 0 0 0.05469,1.058593 0.75,0.75 0 0 0 1.058594,-0.05469 L 17.566406,12.5 A 0.75,0.75 0 0 0 17.511719,11.441406 0.75,0.75 0 0 0 16.970703,11.25 Z"
     id="path74" />
  <path
     style="color:#ffffff;fill:#ffffff;stroke-linecap:round;stroke-linejoin:round;-inkscape-stroke:none"
     d="m 7.5117187,15.441406 a 0.75,0.75 0 0 0 -1.0585937,0.05469 l -0.00977,0.01172 a 0.75,0.75 0 0 0 0.054687,1.058593 0.75,0.75 0 0 0 1.0585937,-0.05469 L 7.5664062,16.5 a 0.75,0.75 0 0 0 -0.054687,-1.058594 z"
     id="path76" />
  <path
     style="color:#ffffff;fill:#ffffff;stroke-linecap:round;stroke-linejoin:round;-inkscape-stroke:none"
     d="m 16.970703,15.25 a 0.75,0.75 0 0 0 -0.517578,0.246094 l -0.0098,0.01172 a 0.75,0.75 0 0 0 0.05469,1.058593 0.75,0.75 0 0 0 1.058594,-0.05469 L 17.566406,16.5 A 0.75,0.75 0 0 0 17.511719,15.441406 0.75,0.75 0 0 0 16.970703,15.25 Z"
     id="path78" />
  <path
     style="color:#ffffff;fill:#ffffff;stroke-linecap:round;stroke-linejoin:round;-inkscape-stroke:none"
     d="M 3.5996094,1.25 C 2.8629077,1.25 2.25,1.8629077 2.25,2.5996094 V 21.400391 C 2.25,22.137086 2.862953,22.75 3.5996094,22.75 H 7 17 20.400391 C 21.13704,22.75 21.75,22.13704 21.75,21.400391 V 2.5996094 C 21.75,1.862953 21.137086,1.25 20.400391,1.25 H 17 7 Z M 3.75,2.75 h 2.5 V 4 A 0.75,0.75 0 0 0 7,4.75 0.75,0.75 0 0 0 7.75,4 V 2.75 h 8.5 V 4 A 0.75,0.75 0 0 0 17,4.75 0.75,0.75 0 0 0 17.75,4 V 2.75 h 2.5 v 18.5 h -2.5 V 20 A 0.75,0.75 0 0 0 17,19.25 0.75,0.75 0 0 0 16.25,20 v 1.25 H 7.75 V 20 A 0.75,0.75 0 0 0 7,19.25 0.75,0.75 0 0 0 6.25,20 v 1.25 h -2.5 z"
     id="path80" />
</svg>
