<?xml version="1.0" encoding="UTF-8" standalone="no"?>
<!-- Created with Inkscape (http://www.inkscape.org/) -->

<svg
   width="540"
   height="405"
   viewBox="0 0 540 405"
   version="1.1"
   id="svg5"
   inkscape:version="1.2.2 (b0a8486541, 2022-12-01)"
   sodipodi:docname="nasplay_540x405.svg"
   inkscape:export-filename="../nasplay/images/nasplay_540x405.png"
   inkscape:export-xdpi="96"
   inkscape:export-ydpi="96"
   xml:space="preserve"
   xmlns:inkscape="http://www.inkscape.org/namespaces/inkscape"
   xmlns:sodipodi="http://sodipodi.sourceforge.net/DTD/sodipodi-0.dtd"
   xmlns:xlink="http://www.w3.org/1999/xlink"
   xmlns="http://www.w3.org/2000/svg"
   xmlns:svg="http://www.w3.org/2000/svg"><sodipodi:namedview
     id="namedview7"
     pagecolor="#ffffff"
     bordercolor="#000000"
     borderopacity="0.25"
     inkscape:showpageshadow="2"
     inkscape:pageopacity="0.0"
     inkscape:pagecheckerboard="0"
     inkscape:deskcolor="#d1d1d1"
     inkscape:document-units="mm"
     showgrid="false"
     inkscape:zoom="0.80774445"
     inkscape:cx="264.93528"
     inkscape:cy="141.13375"
     inkscape:window-width="1872"
     inkscape:window-height="1025"
     inkscape:window-x="0"
     inkscape:window-y="0"
     inkscape:window-maximized="1"
     inkscape:current-layer="layer1" /><defs
     id="defs2"><linearGradient
       inkscape:collect="always"
       id="linearGradient12261"><stop
         style="stop-color:#18464c;stop-opacity:1;"
         offset="0"
         id="stop12257" /><stop
         style="stop-color:#0a1c1f;stop-opacity:1;"
         offset="1"
         id="stop12259" /></linearGradient><linearGradient
       inkscape:collect="always"
       id="linearGradient8051"><stop
         style="stop-color:#ffffff;stop-opacity:1;"
         offset="0"
         id="stop8047" /><stop
         style="stop-color:#ffffff;stop-opacity:0;"
         offset="1"
         id="stop8049" /></linearGradient><rect
       x="70.882416"
       y="34.796822"
       width="332.50296"
       height="101.81292"
       id="rect113" /><linearGradient
       inkscape:collect="always"
       xlink:href="#linearGradient8051"
       id="linearGradient8053"
       x1="71.314526"
       y1="41.431377"
       x2="95.699102"
       y2="41.431377"
       gradientUnits="userSpaceOnUse" /><rect
       x="70.882416"
       y="34.796822"
       width="332.50296"
       height="101.81292"
       id="rect113-1" /><radialGradient
       inkscape:collect="always"
       xlink:href="#linearGradient12261"
       id="radialGradient12263"
       cx="270"
       cy="202.5"
       fx="270"
       fy="202.5"
       r="270"
       gradientTransform="matrix(1,0,0,0.75,0,50.625)"
       gradientUnits="userSpaceOnUse" /><filter
       style="color-interpolation-filters:sRGB"
       id="filter66447"
       inkscape:label="filter0"
       x="0"
       y="0"
       width="1"
       height="1"><feTurbulence
         id="feTurbulence66449"
         type="fractalNoise"
         baseFrequency="100"
         result="result1" /><feDisplacementMap
         in2="result1"
         id="feDisplacementMap66451"
         in="SourceGraphic"
         scale="20"
         xChannelSelector="R"
         yChannelSelector="B"
         result="result2" /><feComposite
         in2="SourceGraphic"
         id="feComposite66453"
         operator="atop" /></filter></defs><g
     inkscape:label="Background"
     inkscape:groupmode="layer"
     id="layer1"><path
       id="rect180"
       style="fill:url(#radialGradient12263);fill-opacity:1;stroke-width:0.487139;filter:url(#filter66447)"
       d="M 22.881356 22.252747 L 22.881356 382.74725 L 517.11864 382.74725 L 517.11864 22.252747 L 22.881356 22.252747 z "
       transform="matrix(1.0925926,0,0,1.1234568,-25,-25)" /></g><g
     inkscape:label="Layer 1"
     id="layer1-2"
     transform="matrix(15.11811,0,0,15.11811,-1340.1573,173.95977)"><g
       aria-label="NAS"
       transform="matrix(0.72609273,0,0,0.63442312,40.477249,-24.397229)"
       id="text111"
       style="white-space:pre;shape-inside:url(#rect113-1);display:inline;fill:#ffffff;stroke:#ffffff;stroke-width:0.343052;stroke-linecap:round;stroke-linejoin:round"><path
         d="m 79.558813,45.715377 h -2.304001 l -3.732,-6.48 h -0.048 q 0.024,0.612 0.048,1.224 0.036,0.612 0.06,1.224 v 4.032 h -1.620001 v -8.568 h 2.292 l 3.72,6.42 h 0.036 q -0.012,-0.6 -0.036,-1.188 -0.024,-0.588 -0.048,-1.176 v -4.056 h 1.632001 z"
         style="font-weight:bold;font-size:12px;-inkscape-font-specification:'sans-serif, Bold'"
         id="path870" /><path
         d="m 86.962809,45.715377 -0.624,-2.04 h -3.12 l -0.624,2.04 h -1.956 l 3.024,-8.604 h 2.22 l 3.036,8.604 z m -1.68,-5.556 q -0.06,-0.204 -0.156,-0.516 -0.096,-0.312 -0.192,-0.636 -0.096,-0.324 -0.156,-0.564 -0.06,0.24 -0.168,0.6 -0.096,0.348 -0.192,0.672 -0.084,0.312 -0.132,0.444 l -0.612,1.992 h 2.232 z"
         style="font-weight:bold;font-size:12px;-inkscape-font-specification:'sans-serif, Bold'"
         id="path872" /><path
         d="m 95.050816,43.339377 q 0,1.14 -0.828,1.824 -0.816,0.672 -2.328,0.672 -1.356,0 -2.424,-0.516 v -1.692 q 0.612,0.264 1.26,0.492 0.66,0.216 1.308,0.216 0.672,0 0.948,-0.252 0.288,-0.264 0.288,-0.66 0,-0.324 -0.228,-0.552 -0.216,-0.228 -0.588,-0.42 -0.372,-0.204 -0.852,-0.432 -0.3,-0.144 -0.648,-0.336 -0.348,-0.204 -0.672,-0.492 -0.312,-0.3 -0.516,-0.72 -0.204,-0.42 -0.204,-1.008 0,-1.152 0.78,-1.788 0.78,-0.648 2.124,-0.648 0.672,0 1.272,0.156 0.612,0.156 1.272,0.444 l -0.588,1.416 q -0.588,-0.24 -1.056,-0.372 -0.468,-0.132 -0.96,-0.132 -0.516,0 -0.792,0.24 -0.276,0.24 -0.276,0.624 0,0.456 0.408,0.72 0.408,0.264 1.212,0.648 0.66,0.312 1.116,0.648 0.468,0.336 0.72,0.792 0.252,0.456 0.252,1.128 z"
         style="font-weight:bold;font-size:12px;-inkscape-font-specification:'sans-serif, Bold'"
         id="path874" /></g><path
       sodipodi:type="star"
       style="fill:#ffffff;fill-opacity:1;stroke:#ffffff;stroke-width:0.86098;stroke-linecap:round;stroke-linejoin:round;stroke-miterlimit:0;stroke-dasharray:none;stroke-opacity:1"
       id="path5771"
       inkscape:flatsided="true"
       sodipodi:sides="3"
       sodipodi:cx="29.279375"
       sodipodi:cy="4.0224066"
       sodipodi:r1="2.1987894"
       sodipodi:r2="1.0993946"
       sodipodi:arg1="0"
       sodipodi:arg2="1.0471976"
       inkscape:rounded="0"
       inkscape:randomized="0"
       d="M 31.478164,4.0224066 28.17998,5.926614 V 2.1181991 Z"
       inkscape:transform-center-x="-0.98676398"
       transform="matrix(1.7950974,0,0,1.7951094,63.126973,-5.3328644)"
       inkscape:transform-center-y="2.5671473e-06" /></g></svg>
