<?xml version="1.0" encoding="UTF-8" standalone="no"?>
<svg
   width="48px"
   height="48px"
   stroke-width="1.5"
   viewBox="0 0 24 24"
   fill="none"
   color="#ffffff"
   version="1.1"
   id="svg2030"
   sodipodi:docname="server.svg"
   inkscape:export-filename="server.png"
   inkscape:export-xdpi="96"
   inkscape:export-ydpi="96"
   inkscape:version="1.2.2 (b0a8486541, 2022-12-01)"
   xmlns:inkscape="http://www.inkscape.org/namespaces/inkscape"
   xmlns:sodipodi="http://sodipodi.sourceforge.net/DTD/sodipodi-0.dtd"
   xmlns="http://www.w3.org/2000/svg"
   xmlns:svg="http://www.w3.org/2000/svg">
  <defs
     id="defs2034" />
  <sodipodi:namedview
     id="namedview2032"
     pagecolor="#ffffff"
     bordercolor="#000000"
     borderopacity="0.25"
     inkscape:showpageshadow="2"
     inkscape:pageopacity="0.0"
     inkscape:pagecheckerboard="true"
     inkscape:deskcolor="#d1d1d1"
     showgrid="false"
     inkscape:zoom="18.145833"
     inkscape:cx="20.335247"
     inkscape:cy="24.027555"
     inkscape:window-width="1872"
     inkscape:window-height="1025"
     inkscape:window-x="0"
     inkscape:window-y="0"
     inkscape:window-maximized="1"
     inkscape:current-layer="svg2030" />
  <path
     d="M6 18.01L6.01 17.9989"
     stroke="#ffffff"
     stroke-width="1.5"
     stroke-linecap="round"
     stroke-linejoin="round"
     id="path2022" />
  <path
     d="M6 6.01L6.01 5.99889"
     stroke="#ffffff"
     stroke-width="1.5"
     stroke-linecap="round"
     stroke-linejoin="round"
     id="path2024" />
  <path
     d="M2 9.4V2.6C2 2.26863 2.26863 2 2.6 2H21.4C21.7314 2 22 2.26863 22 2.6V9.4C22 9.73137 21.7314 10 21.4 10H2.6C2.26863 10 2 9.73137 2 9.4Z"
     stroke="#ffffff"
     stroke-width="1.5"
     id="path2026" />
  <path
     d="M2 21.4V14.6C2 14.2686 2.26863 14 2.6 14H21.4C21.7314 14 22 14.2686 22 14.6V21.4C22 21.7314 21.7314 22 21.4 22H2.6C2.26863 22 2 21.7314 2 21.4Z"
     stroke="#ffffff"
     stroke-width="1.5"
     id="path2028" />
</svg>
