<?xml version="1.0" encoding="UTF-8" standalone="no"?>
<svg
   viewBox="0 0 40.959998 40.959996"
   width="48"
   height="48"
   fill-rule="nonzero"
   version="1.1"
   id="svg8"
   sodipodi:docname="icons8-picture.svg"
   inkscape:export-filename="..\..\nasplay\images\icons8-picture_focused-48x48.png"
   inkscape:export-xdpi="96"
   inkscape:export-ydpi="96"
   inkscape:version="1.4.3 (0d15f75, 2025-12-25)"
   xmlns:inkscape="http://www.inkscape.org/namespaces/inkscape"
   xmlns:sodipodi="http://sodipodi.sourceforge.net/DTD/sodipodi-0.dtd"
   xmlns="http://www.w3.org/2000/svg"
   xmlns:svg="http://www.w3.org/2000/svg">
  <defs
     id="defs12" />
  <sodipodi:namedview
     id="namedview10"
     pagecolor="#ffffff"
     bordercolor="#000000"
     borderopacity="0.25"
     inkscape:showpageshadow="2"
     inkscape:pageopacity="0.0"
     inkscape:pagecheckerboard="true"
     inkscape:deskcolor="#d1d1d1"
     showgrid="false"
     inkscape:zoom="4.1059335"
     inkscape:cx="83.902966"
     inkscape:cy="69.289968"
     inkscape:window-width="1366"
     inkscape:window-height="697"
     inkscape:window-x="-8"
     inkscape:window-y="-8"
     inkscape:window-maximized="1"
     inkscape:current-layer="g6" />
  <g
     fill="#ffffff"
     fill-rule="nonzero"
     stroke="none"
     stroke-width="1"
     stroke-linecap="butt"
     stroke-linejoin="miter"
     stroke-miterlimit="10"
     stroke-dasharray="none"
     stroke-dashoffset="0"
     font-family="none"
     font-weight="none"
     font-size="none"
     text-anchor="none"
     style="mix-blend-mode:normal"
     id="g6"
     transform="matrix(0.30666665,0,0,0.54761902,0,-11.423067)">
    <path
       d="m 0,20.859515 v 74.79652 h 133.56521 v -74.79652 z m 5.3426086,3.561739 H 128.22261 V 92.094297 H 5.3426086 Z m 5.3426084,3.561739 v 40.570433 c -0.07303,0.236515 -0.07303,0.48696 0,0.72348 V 88.532558 H 122.88 v -8.626089 c 0.073,-0.236516 0.073,-0.48696 0,-0.72348 V 27.982993 Z m 5.342608,3.561739 H 117.53739 V 75.287336 L 92.744347,58.758642 c -0.594793,-0.389566 -1.429575,-0.577394 -2.253914,-0.50087 -0.594793,0.04177 -1.158251,0.222609 -1.586086,0.50087 L 77.551304,66.327338 50.086954,46.34821 c -0.615656,-0.445218 -1.52347,-0.660863 -2.420868,-0.556522 -0.532177,0.04869 -1.022602,0.208701 -1.419132,0.445218 L 16.027825,64.82473 Z M 93.49565,40.44908 c -4.424346,0 -8.013911,2.393043 -8.013911,5.342608 0,2.949566 3.589565,5.342609 8.013911,5.342609 4.42435,0 8.01391,-2.393043 8.01391,-5.342609 0,-2.949565 -3.58956,-5.342608 -8.01391,-5.342608 z m -45.579129,9.683478 25.794783,18.754781 -6.177393,4.118262 c -1.064357,0.709569 -1.064357,1.850428 0,2.559997 1.064355,0.709569 2.775643,0.709569 3.84,0 l 7.596522,-5.119999 c 0.375663,-0.153046 0.688686,-0.36173 0.91826,-0.612175 l 10.935654,-7.234782 26.713043,17.808697 v 4.563476 H 16.027825 V 69.777772 Z"
       id="path2"
       style="mix-blend-mode:normal;fill:#282828;fill-opacity:1;stroke-width:2.18111"
       inkscape:export-filename="../nasplay/images/icons8-picture-92x138.png"
       inkscape:export-xdpi="96"
       inkscape:export-ydpi="96" />
  </g>
</svg>
