<?xml version="1.0" encoding="UTF-8" standalone="no"?>
<svg
   viewBox="0 0 157.86666 88.746659"
   width="185"
   height="104"
   fill-rule="nonzero"
   version="1.1"
   id="svg8"
   sodipodi:docname="icons8-picture.svg"
   inkscape:export-filename="../nasplay/images/icons8-picture-92x138.png"
   inkscape:export-xdpi="96"
   inkscape:export-ydpi="96"
   inkscape:version="1.2.2 (b0a8486541, 2022-12-01)"
   xmlns:inkscape="http://www.inkscape.org/namespaces/inkscape"
   xmlns:sodipodi="http://sodipodi.sourceforge.net/DTD/sodipodi-0.dtd"
   xmlns="http://www.w3.org/2000/svg"
   xmlns:svg="http://www.w3.org/2000/svg">
  <defs
     id="defs12" />
  <sodipodi:namedview
     id="namedview10"
     pagecolor="#ffffff"
     bordercolor="#000000"
     borderopacity="0.25"
     inkscape:showpageshadow="2"
     inkscape:pageopacity="0.0"
     inkscape:pagecheckerboard="true"
     inkscape:deskcolor="#d1d1d1"
     showgrid="false"
     inkscape:zoom="4.1059335"
     inkscape:cx="28.738897"
     inkscape:cy="81.345692"
     inkscape:window-width="1872"
     inkscape:window-height="1025"
     inkscape:window-x="0"
     inkscape:window-y="0"
     inkscape:window-maximized="1"
     inkscape:current-layer="g6" />
  <g
     fill="#ffffff"
     fill-rule="nonzero"
     stroke="none"
     stroke-width="1"
     stroke-linecap="butt"
     stroke-linejoin="miter"
     stroke-miterlimit="10"
     stroke-dasharray="none"
     stroke-dashoffset="0"
     font-family="none"
     font-weight="none"
     font-size="none"
     text-anchor="none"
     style="mix-blend-mode:normal"
     id="g6"
     transform="matrix(0.30666665,0,0,0.54761902,0,-11.423067)">
    <path
       d="M 0,20.859515 V 182.91864 H 514.7826 V 20.859515 Z m 20.591304,7.717101 H 494.1913 V 175.20154 H 20.591304 Z m 20.591304,7.717101 v 87.902603 c -0.281483,0.51245 -0.281483,1.05508 0,1.56754 v 41.72058 H 473.6 v -18.68986 c 0.28148,-0.51245 0.28148,-1.05508 0,-1.56754 V 36.293717 Z m 20.591302,7.717101 h 391.23478 v 94.775642 l -95.55652,-35.81217 c -2.29243,-0.84406 -5.50982,-1.25102 -8.68696,-1.08522 -2.29243,0.0905 -4.46409,0.48232 -6.11304,1.08522 L 298.89565,119.37313 193.04347,76.08502 c -2.37284,-0.964638 -5.87171,-1.431869 -9.33043,-1.205797 -2.0511,0.105493 -3.94128,0.452184 -5.46957,0.964638 L 61.77391,116.11748 Z m 298.57391,19.292753 c -17.05217,0 -30.88695,5.184927 -30.88695,11.575652 0,6.390725 13.83478,11.575652 30.88695,11.575652 17.05218,0 30.88696,-5.184927 30.88696,-11.575652 0,-6.390725 -13.83478,-11.575652 -30.88696,-11.575652 z m -175.66956,20.980869 99.41739,40.63536 -23.8087,8.9229 c -4.10221,1.5374 -4.10221,4.00926 0,5.54666 4.1022,1.5374 10.69779,1.5374 14.8,0 l 29.27826,-11.09333 c 1.44787,-0.3316 2.65431,-0.78375 3.53913,-1.32638 l 42.14783,-15.67536 102.95652,38.58551 v 9.88753 H 61.77391 v -32.91826 z"
       id="path2"
       style="mix-blend-mode:normal;stroke-width:6.30288"
       inkscape:export-filename="../nasplay/images/icons8-picture-92x138.png"
       inkscape:export-xdpi="96"
       inkscape:export-ydpi="96" />
  </g>
</svg>
